# xmcd
#
# Track frame offsets:
# 150
# 24631
# 50838
# 75282
# 107230
# 135675
# 169937
# 188955
# 214136
#
# Disc length: 3235 seconds
#
#
# Revision: 0
# Processed by: cddbd v1.5.1PL2 Copyright (c) Steve Scherf et al.
# Submitted via: FreeRIP 2.945 
#
DISCID=7d0ca109
DTITLE=Andy Timmons - Pawn kings Live
DYEAR=1998
DGENRE=Blues
TTITLE0=Guess who's back in town
TTITLE1=I feel good
TTITLE2=Black magic woman
TTITLE3=The loner
TTITLE4=Money
TTITLE5=Way that I'm livin'
TTITLE6=I've been in Dallas
TTITLE7=Come together
TTITLE8=Sweet home Chicago
EXTD=
EXTT0=
EXTT1=
EXTT2=
EXTT3=
EXTT4=
EXTT5=
EXTT6=
EXTT7=
EXTT8=
PLAYORDER=
